<?xml version="1.0" encoding="UTF-8" standalone="no"?>
<svg
   xmlns:osb="http://www.openswatchbook.org/uri/2009/osb"
   xmlns:dc="http://purl.org/dc/elements/1.1/"
   xmlns:cc="http://creativecommons.org/ns#"
   xmlns:rdf="http://www.w3.org/1999/02/22-rdf-syntax-ns#"
   xmlns:svg="http://www.w3.org/2000/svg"
   xmlns="http://www.w3.org/2000/svg"
   xmlns:xlink="http://www.w3.org/1999/xlink"
   version="1.1"
   id="svg2"
   viewBox="0 0 744.09448819 1052.3622047"
   height="297mm"
   width="210mm">
  <defs
     id="defs4">
    <linearGradient
       id="linearGradient4750">
      <stop
         id="stop4752"
         offset="0"
         style="stop-color:#000000;stop-opacity:1;" />
      <stop
         id="stop4754"
         offset="1"
         style="stop-color:#dc8686;stop-opacity:0" />
    </linearGradient>
    <linearGradient
       osb:paint="solid"
       id="linearGradient6437">
      <stop
         id="stop6439"
         offset="0"
         style="stop-color:#000000;stop-opacity:1;" />
    </linearGradient>
    <linearGradient
       osb:paint="gradient"
       id="linearGradient4949">
      <stop
         id="stop4951"
         offset="0"
         style="stop-color:#9c9c9c;stop-opacity:1;" />
      <stop
         id="stop4953"
         offset="1"
         style="stop-color:#000000;stop-opacity:0;" />
    </linearGradient>
    <filter
       height="1.1267614"
       y="-0.06338069"
       width="1.1139234"
       x="-0.05696169"
       id="filter4685"
       style="color-interpolation-filters:sRGB">
      <feGaussianBlur
         id="feGaussianBlur4687"
         stdDeviation="15.913498" />
    </filter>
    <linearGradient
       gradientTransform="translate(-7.348071,-4)"
       y2="849.50507"
       x2="434.28571"
       y1="403.79077"
       x1="125.71429"
       gradientUnits="userSpaceOnUse"
       id="linearGradient4762"
       xlink:href="#linearGradient4750" />
    <filter
       height="1.5360426"
       y="-0.26802128"
       width="1.1968922"
       x="-0.098446109"
       id="filter4581"
       style="color-interpolation-filters:sRGB">
      <feGaussianBlur
         id="feGaussianBlur4583"
         stdDeviation="23.853719" />
    </filter>
    <filter
       height="1.5360424"
       y="-0.2680212"
       width="1.1968922"
       x="-0.098446119"
       id="filter4633"
       style="color-interpolation-filters:sRGB">
      <feGaussianBlur
         id="feGaussianBlur4635"
         stdDeviation="23.853722" />
    </filter>
    <linearGradient
       y2="849.50507"
       x2="434.28571"
       y1="403.79077"
       x1="125.71429"
       gradientTransform="translate(-15.348071,-138)"
       gradientUnits="userSpaceOnUse"
       id="linearGradient4676"
       xlink:href="#linearGradient4750" />
  </defs>
  <metadata
     id="metadata7">
    <rdf:RDF>
      <cc:Work
         rdf:about="">
        <dc:format>image/svg+xml</dc:format>
        <dc:type
           rdf:resource="http://purl.org/dc/dcmitype/StillImage" />
        <dc:title></dc:title>
      </cc:Work>
    </rdf:RDF>
  </metadata>
  <g
     style="display:inline"
     id="layer2">
    <path
       id="path4597"
       d="m 63.581598,314.18391 -0.05833,-0.1265 C 271.80494,218.02384 410.10874,161.45749 496.22308,134.43047 c 0,0 2.1e-4,-6e-5 2.1e-4,-6e-5 43.05502,-13.51283 73.07425,-19.64501 92.27325,-19.62878 9.59852,0.008 16.5081,1.55288 20.98961,4.49469 4.48987,2.94732 6.53064,7.28933 6.40617,12.85025 -0.24839,11.09652 -9.11945,27.08299 -24.34081,46.7 -15.22819,19.62579 -36.83263,42.91094 -62.58776,68.6135 -51.51062,51.40546 -119.63417,112.49041 -186.57853,173.32286 -66.94566,60.83363 -132.713,121.41556 -179.51498,171.81779 -23.40114,25.20128 -42.05939,47.85603 -53.75291,66.72389 -11.696173,18.87215 -16.415605,33.94153 -11.966536,43.98296 2.223888,5.01923 6.741286,8.78858 13.837776,11.1492 7.09714,2.36083 16.7706,3.31151 29.29995,2.69502 25.05858,-1.233 61.53082,-8.73398 111.64127,-23.74538 0,0 2.4e-4,-7e-5 2.4e-4,-7e-5 100.22051,-30.0227 254.986,-90.08442 482.08591,-190.11512 -227.0947,100.04109 -381.85696,160.11413 -482.07592,190.14848 0,0 -2.4e-4,7e-5 -2.4e-4,7e-5 -50.10904,15.01704 -86.58431,22.5251 -111.64862,23.76419 -12.53208,0.61953 -22.21384,-0.32799 -29.32174,-2.68933 -7.1085,-2.36156 -11.645795,-6.1383 -13.88229,-11.17881 -4.471676,-10.07809 0.265533,-25.1828 11.95613,-44.05698 11.69329,-18.87851 30.35187,-41.54219 53.75036,-66.74915 46.79735,-50.41431 112.56036,-111.00791 179.49774,-171.8497 66.93868,-60.84297 135.05052,-121.93304 186.54931,-173.3431 25.74955,-25.70519 47.34323,-48.98783 62.55942,-68.60763 15.22297,-19.62856 24.04239,-35.5653 24.28332,-46.58728 0.12019,-5.49832 -1.89466,-9.76434 -6.31661,-12.66364 -4.43035,-2.90477 -11.28877,-4.44513 -20.87037,-4.45034 -19.16132,-0.0104 -49.15075,6.11786 -92.20012,19.635 0,0 -2.1e-4,6e-5 -2.1e-4,6e-5 -86.09418,27.03286 -224.38126,83.60412 -432.653582,179.64616 l -0.06092,-0.12531 z"
       style="fill:none;fill-opacity:1;fill-rule:evenodd;stroke:#775f5f;stroke-width:50;stroke-linecap:butt;stroke-linejoin:miter;stroke-miterlimit:4;stroke-dasharray:none;stroke-opacity:0.56862745" />
    <path
       id="path4561-3-5"
       d="m 704.34179,806.88198 -581.52554,198.24932 9.43756,15.3492 569.08338,-176.0944 z"
       style="color:#000000;font-style:normal;font-variant:normal;font-weight:normal;font-stretch:normal;font-size:medium;line-height:normal;font-family:sans-serif;text-indent:0;text-align:start;text-decoration:none;text-decoration-line:none;text-decoration-style:solid;text-decoration-color:#000000;letter-spacing:normal;word-spacing:normal;text-transform:none;direction:ltr;block-progression:tb;writing-mode:lr-tb;baseline-shift:baseline;text-anchor:start;white-space:normal;clip-rule:nonzero;display:inline;overflow:visible;visibility:visible;opacity:1;isolation:auto;mix-blend-mode:normal;color-interpolation:sRGB;color-interpolation-filters:linearRGB;solid-color:#000000;solid-opacity:1;fill:url(#linearGradient4762);fill-opacity:1;fill-rule:evenodd;stroke:#775f5f;stroke-width:38.90000153;stroke-linecap:butt;stroke-linejoin:miter;stroke-miterlimit:4;stroke-dasharray:none;stroke-dashoffset:0;stroke-opacity:0.56862745;color-rendering:auto;image-rendering:auto;shape-rendering:auto;text-rendering:auto;enable-background:accumulate" />
    <path
       style="color:#000000;font-style:normal;font-variant:normal;font-weight:normal;font-stretch:normal;font-size:medium;line-height:normal;font-family:sans-serif;text-indent:0;text-align:start;text-decoration:none;text-decoration-line:none;text-decoration-style:solid;text-decoration-color:#000000;letter-spacing:normal;word-spacing:normal;text-transform:none;direction:ltr;block-progression:tb;writing-mode:lr-tb;baseline-shift:baseline;text-anchor:start;white-space:normal;clip-rule:nonzero;display:inline;overflow:visible;visibility:visible;opacity:1;isolation:auto;mix-blend-mode:normal;color-interpolation:sRGB;color-interpolation-filters:linearRGB;solid-color:#000000;solid-opacity:1;fill:url(#linearGradient4676);fill-opacity:1;fill-rule:evenodd;stroke:#775f5f;stroke-width:38.90000153;stroke-linecap:butt;stroke-linejoin:miter;stroke-miterlimit:4;stroke-dasharray:none;stroke-dashoffset:0;stroke-opacity:0.56862745;color-rendering:auto;image-rendering:auto;shape-rendering:auto;text-rendering:auto;enable-background:accumulate"
       d="M 696.34179,672.88198 114.81625,871.1313 124.25381,886.4805 693.33719,710.3861 Z"
       id="path4674" />
  </g>
  <g
     style="display:inline;opacity:1"
     id="layer1">
    <g
       id="g4637">
      <path
         id="path4642"
         d="m 696.43609,679.21696 -581.52554,198.24923 9.43756,15.34921 569.0834,-176.09432 z"
         style="color:#000000;font-style:normal;font-variant:normal;font-weight:normal;font-stretch:normal;font-size:medium;line-height:normal;font-family:sans-serif;text-indent:0;text-align:start;text-decoration:none;text-decoration-line:none;text-decoration-style:solid;text-decoration-color:#000000;letter-spacing:normal;word-spacing:normal;text-transform:none;direction:ltr;block-progression:tb;writing-mode:lr-tb;baseline-shift:baseline;text-anchor:start;white-space:normal;clip-rule:nonzero;display:inline;overflow:visible;visibility:visible;opacity:1;isolation:auto;mix-blend-mode:normal;color-interpolation:sRGB;color-interpolation-filters:linearRGB;solid-color:#000000;solid-opacity:1;fill:#000000;fill-opacity:1;fill-rule:evenodd;stroke:#000000;stroke-width:34.40000153;stroke-linecap:butt;stroke-linejoin:miter;stroke-miterlimit:4;stroke-dasharray:none;stroke-dashoffset:0;stroke-opacity:0.69803922;filter:url(#filter4581);color-rendering:auto;image-rendering:auto;shape-rendering:auto;text-rendering:auto;enable-background:accumulate" />
      <path
         id="path4644"
         d="m 52.602314,314.18391 -0.05833,-0.1265 C 260.82566,218.02384 399.12946,161.45749 485.2438,134.43047 c 0,0 2.1e-4,-6e-5 2.1e-4,-6e-5 43.05502,-13.51283 73.07425,-19.64501 92.27325,-19.62878 9.59852,0.008 16.5081,1.55288 20.98961,4.49469 4.48987,2.94732 6.53064,7.28933 6.40617,12.85025 -0.24839,11.09652 -9.11945,27.08299 -24.34081,46.7 -15.22819,19.62579 -36.83263,42.91094 -62.58776,68.6135 -51.51062,51.40546 -119.63417,112.49041 -186.57853,173.32286 -66.94566,60.83363 -132.713,121.41556 -179.51498,171.81779 -23.40114,25.20128 -42.05939,47.85603 -53.752914,66.72389 -11.696173,18.87215 -16.415605,33.94153 -11.966536,43.98296 2.223888,5.01923 6.741284,8.78858 13.83778,11.1492 7.09714,2.36083 16.7706,3.31151 29.29995,2.69502 25.05858,-1.233 61.53082,-8.73398 111.64127,-23.74538 0,0 2.4e-4,-7e-5 2.4e-4,-7e-5 100.22051,-30.0227 254.986,-90.08442 482.08591,-190.11512 -227.0947,100.04109 -381.85696,160.11413 -482.07592,190.14848 0,0 -2.4e-4,7e-5 -2.4e-4,7e-5 -50.10904,15.01704 -86.58431,22.5251 -111.64862,23.76419 -12.53208,0.61953 -22.21384,-0.32799 -29.321744,-2.68933 -7.108498,-2.36156 -11.645795,-6.1383 -13.88229,-11.17881 -4.471676,-10.07809 0.265533,-25.1828 11.956133,-44.05698 11.693291,-18.87851 30.351871,-41.54219 53.750361,-66.74915 46.79735,-50.41431 112.56036,-111.00791 179.49774,-171.8497 66.93868,-60.84297 135.05052,-121.93304 186.54931,-173.3431 25.74955,-25.70519 47.34323,-48.98783 62.55942,-68.60763 15.22297,-19.62856 24.04239,-35.5653 24.28332,-46.58728 0.12019,-5.49832 -1.89466,-9.76434 -6.31661,-12.66364 -4.43035,-2.90477 -11.28877,-4.44513 -20.87037,-4.45034 -19.16132,-0.0104 -49.15075,6.11786 -92.20012,19.635 0,0 -2.1e-4,6e-5 -2.1e-4,6e-5 -86.09418,27.03286 -224.38126,83.60412 -432.653586,179.64616 l -0.06092,-0.12531 z"
         style="display:inline;opacity:1;fill:none;fill-opacity:1;fill-rule:evenodd;stroke:#000000;stroke-width:55.09500122;stroke-linecap:butt;stroke-linejoin:miter;stroke-miterlimit:4;stroke-dasharray:none;stroke-opacity:0.69653177;filter:url(#filter4685)"
         transform="matrix(0.99951803,0,0,1.0091808,0.18690231,-0.96293809)" />
      <path
         id="path4648"
         d="m 711.68986,810.88198 -581.52554,198.24932 9.43756,15.3492 569.08338,-176.0944 z"
         style="color:#000000;font-style:normal;font-variant:normal;font-weight:normal;font-stretch:normal;font-size:medium;line-height:normal;font-family:sans-serif;text-indent:0;text-align:start;text-decoration:none;text-decoration-line:none;text-decoration-style:solid;text-decoration-color:#000000;letter-spacing:normal;word-spacing:normal;text-transform:none;direction:ltr;block-progression:tb;writing-mode:lr-tb;baseline-shift:baseline;text-anchor:start;white-space:normal;clip-rule:nonzero;display:inline;overflow:visible;visibility:visible;opacity:1;isolation:auto;mix-blend-mode:normal;color-interpolation:sRGB;color-interpolation-filters:linearRGB;solid-color:#000000;solid-opacity:1;fill:#000000;fill-opacity:1;fill-rule:evenodd;stroke:#000000;stroke-width:30;stroke-linecap:butt;stroke-linejoin:miter;stroke-miterlimit:4;stroke-dasharray:none;stroke-dashoffset:0;stroke-opacity:0.69803922;filter:url(#filter4633);color-rendering:auto;image-rendering:auto;shape-rendering:auto;text-rendering:auto;enable-background:accumulate" />
    </g>
  </g>
</svg>
